<svg width="441" height="466" viewBox="0 0 441 466" fill="none" xmlns="http://www.w3.org/2000/svg">
<g clip-path="url(#clip0)">
<path d="M25.6502 426.033C29.9592 440.991 42.541 451.462 55.6654 460.357C57.4979 461.599 59.331 462.813 61.1647 463.998C61.1771 464.004 61.1899 464.015 61.2025 464.021C61.2907 464.077 61.3791 464.134 61.4613 464.191C61.8397 464.435 62.2183 464.68 62.5936 464.921L62.3875 465.014C62.3875 465.014 62.185 465.121 62.4065 465.031C62.4724 465.003 62.5415 464.979 62.6073 464.951C70.2317 461.874 77.9916 458.57 83.8345 452.806C89.8958 446.82 93.4379 437.431 90.1558 429.567C89.7244 428.537 89.1795 427.558 88.5312 426.649C88.265 426.268 87.9783 425.903 87.6797 425.545C85.8693 423.334 83.503 421.645 80.8242 420.653C78.1454 419.66 75.2507 419.399 72.4378 419.897C69.6249 420.395 66.9954 421.634 64.8195 423.486C62.6436 425.338 61 427.737 60.0576 430.435C59.0934 421.452 66.4961 413.927 73.6201 408.374C80.7472 402.825 88.8457 396.781 90.2235 387.847C90.993 382.877 89.2657 378.06 86.1191 374.193C86.0217 374.076 85.9244 373.958 85.8241 373.844C81.9938 369.34 76.6066 366.448 70.7384 365.745C59.8099 364.609 49.1945 370.397 41.2551 378.001C28.4768 390.234 20.7517 409.025 25.6502 426.033Z" fill="#EEEEEE"/>
<path d="M46.1919 406.467C44.0945 409.733 42.4842 413.287 41.4118 417.017C40.505 420.351 40.1013 423.802 40.2144 427.256C40.5069 434.363 42.5006 441.295 46.028 447.47C48.685 452.155 51.9231 456.485 55.6653 460.357C57.4979 461.599 59.331 462.813 61.1646 463.998C61.1771 464.004 61.1899 464.015 61.2024 464.021C61.2907 464.077 61.3791 464.134 61.4612 464.191C61.8397 464.435 62.2183 464.68 62.5936 464.921C62.5936 464.921 62.185 465.121 62.4065 465.031C62.4724 465.003 62.5415 464.979 62.6072 464.951C61.9239 459.345 62.5933 453.656 64.5595 448.362C66.5256 443.068 69.7311 438.323 73.9075 434.524C78.0939 430.782 83.1046 428.084 88.5312 426.649C88.2649 426.268 87.9782 425.903 87.6797 425.545C85.5839 426.133 83.5441 426.905 81.5842 427.853C74.5783 431.22 68.8418 436.754 65.2238 443.637C61.9771 449.887 60.5798 456.934 61.1959 463.951C60.8827 463.667 60.569 463.376 60.2648 463.089C54.4711 457.684 49.3251 451.48 45.8424 444.319C42.821 438.256 41.336 431.541 41.5183 424.768C41.8025 417.383 44.7431 410.542 49.0008 404.587C53.6673 398.233 59.18 392.548 65.3857 387.689C71.6398 382.677 78.4833 378.449 85.7637 375.1C85.9279 375.023 86.0564 374.886 86.1225 374.718C86.1887 374.549 86.1874 374.361 86.1191 374.193C86.0705 374.042 85.9645 373.917 85.824 373.844C85.7518 373.813 85.6734 373.798 85.5948 373.802C85.5162 373.805 85.4393 373.826 85.3699 373.863C84.4711 374.277 83.5784 374.697 82.6929 375.135C75.3176 378.783 68.4238 383.333 62.1697 388.682C56.1287 393.836 50.4415 399.724 46.1919 406.467Z" fill="white"/>
<path d="M172.823 198.006C185.143 191.266 189.494 175.484 182.54 162.756C175.587 150.027 159.962 145.172 147.642 151.911C135.322 158.651 130.972 174.433 137.925 187.161C144.878 199.89 160.503 204.745 172.823 198.006Z" fill="#2F2E41"/>
<path d="M160.233 202.669C171.802 202.669 181.181 193.284 181.181 181.707C181.181 170.129 171.802 160.744 160.233 160.744C148.663 160.744 139.284 170.129 139.284 181.707C139.284 193.284 148.663 202.669 160.233 202.669Z" fill="#FFB8B8"/>
<path d="M149 213.771L146.306 221.396L150.269 244.345L166.599 257.923L179.567 237.857L173.323 218.873L168.64 213.586C168.686 213.111 168.633 212.631 168.485 212.177C168.337 211.723 168.097 211.305 167.78 210.948C167.463 210.592 167.075 210.305 166.642 210.105C166.208 209.905 165.738 209.798 165.261 209.788L155.034 209.589C153.717 209.563 152.425 209.953 151.342 210.704C150.259 211.455 149.439 212.528 149 213.771Z" fill="#DCDCDC"/>
<path d="M192.397 455.5L202.853 455.498L204.297 415.139L192.393 415.14L192.397 455.5Z" fill="#FFB8B8"/>
<path d="M223.021 465.213L190.157 465.216L190.156 452.51L210.322 452.508C213.69 452.508 216.919 453.846 219.301 456.229C221.682 458.611 223.02 461.843 223.021 465.213L223.021 465.213Z" fill="#2F2E41"/>
<path d="M119.146 455.5L129.603 455.498L134.575 415.139L119.143 415.14L119.146 455.5Z" fill="#FFB8B8"/>
<path d="M149.77 465.213L116.906 465.216L116.905 452.51L137.071 452.508C140.439 452.508 143.669 453.846 146.05 456.229C148.431 458.611 149.769 461.843 149.77 465.213L149.77 465.213Z" fill="#2F2E41"/>
<path d="M211.087 172.067C212.16 172.717 213.077 173.593 213.775 174.636C214.472 175.679 214.933 176.862 215.124 178.102C215.315 179.342 215.233 180.609 214.882 181.813C214.531 183.018 213.92 184.131 213.093 185.073L221.741 202.673L212.335 210.541L200.47 185.515C198.98 184.019 198.089 182.028 197.967 179.919C197.845 177.811 198.501 175.73 199.809 174.073C201.118 172.415 202.989 171.295 205.067 170.926C207.146 170.556 209.287 170.962 211.087 172.067H211.087Z" fill="#FFB8B8"/>
<path d="M148.742 309.881C143.644 309.815 138.555 309.439 133.503 308.756C132.639 308.647 131.808 308.354 131.066 307.896C130.325 307.439 129.69 306.827 129.204 306.103C128.719 305.379 128.395 304.559 128.253 303.699C128.112 302.838 128.156 301.958 128.383 301.116L139.703 259.176L130.587 233.584C129.605 230.821 129.715 227.786 130.895 225.101C132.074 222.415 134.235 220.283 136.934 219.138L149.455 213.841L153.218 237.152L162.184 248.465C162.482 248.84 162.868 249.137 163.307 249.328C163.747 249.519 164.226 249.598 164.704 249.56C165.181 249.521 165.642 249.365 166.045 249.106C166.448 248.846 166.781 248.492 167.014 248.073L173.823 235.861L168.261 213.421L176.553 214.403C179.23 214.728 181.761 215.8 183.859 217.495C185.957 219.191 187.537 221.441 188.419 223.991C190.967 231.407 191.189 239.424 189.055 246.97L185.619 259.185L191.653 298.207C191.818 299.27 191.765 300.356 191.499 301.399C191.232 302.441 190.757 303.418 190.101 304.271C189.446 305.125 188.624 305.836 187.686 306.362C186.748 306.888 185.713 307.218 184.644 307.332C180.789 307.776 176.906 307.938 173.028 307.818C169.508 307.668 167.036 305.52 165.878 301.607C165.816 301.378 165.68 301.176 165.491 301.031C165.303 300.887 165.072 300.808 164.835 300.807C164.597 300.805 164.366 300.882 164.176 301.024C163.986 301.167 163.848 301.368 163.783 301.596C163.463 302.732 163.11 303.998 162.726 305.392C161.794 308.778 155.956 309.881 148.742 309.881Z" fill="#2F2E41"/>
<path d="M185.124 234.177C184.085 234.18 183.055 233.977 182.094 233.578C180.966 233.111 179.971 232.373 179.195 231.43C178.418 230.486 177.886 229.367 177.644 228.169C177.278 226.27 177.532 224.303 178.369 222.559C179.206 220.815 180.58 219.387 182.29 218.485L206.723 205.21L205.387 199.922C205.202 199.111 205.259 198.264 205.551 197.485C205.843 196.706 206.357 196.03 207.029 195.541L213.329 190.858C213.808 190.49 214.363 190.235 214.953 190.11C215.543 189.985 216.154 189.994 216.74 190.137C217.257 190.267 217.738 190.511 218.149 190.851C218.559 191.191 218.888 191.619 219.111 192.103L222.384 199.175C224.974 204.77 222.76 211.66 217.234 215.203L189.83 232.769C188.428 233.679 186.795 234.167 185.124 234.177Z" fill="#2F2E41"/>
<path d="M133.648 436.738C133.563 436.738 133.477 436.735 133.391 436.73L120.078 436.194C119.562 436.162 119.057 436.026 118.595 435.794C118.133 435.561 117.722 435.238 117.388 434.843C117.053 434.448 116.802 433.989 116.65 433.494C116.497 432.999 116.446 432.479 116.5 431.964L130.011 301.884L165.472 288.981L186.355 300.806L209.2 426.848C209.38 427.812 209.183 428.809 208.652 429.633C208.12 430.458 207.294 431.047 206.341 431.281L206.286 431.295L192.658 430.96C191.719 431.172 190.734 431.025 189.898 430.547C189.062 430.068 188.435 429.294 188.142 428.376L159.118 326.459C159.031 326.193 158.859 325.963 158.629 325.804C158.398 325.645 158.122 325.566 157.843 325.579C157.563 325.592 157.296 325.696 157.081 325.876C156.867 326.055 156.717 326.3 156.655 326.573L137.387 433.73C137.2 434.583 136.727 435.347 136.047 435.894C135.367 436.441 134.52 436.739 133.648 436.738Z" fill="#2F2E41"/>
<path d="M141.936 168.473C138.604 172.839 141.14 180.27 146.445 181.684C151.75 183.098 157.644 177.913 156.923 172.467C155.778 178.181 160.665 184.161 166.466 184.669C172.268 185.177 177.909 180.628 179.178 174.941C180.447 169.253 177.615 163.039 172.792 159.772C167.97 156.505 161.512 156.08 156.056 158.117C150.486 160.202 145.6 163.786 141.936 168.473Z" fill="#2F2E41"/>
<path d="M167.189 149.839C164.086 143.322 160.898 136.681 155.883 131.493C150.867 126.305 143.612 122.731 136.503 123.955C129.394 125.178 123.272 132.358 124.846 139.402C125.646 142.98 122.584 146.526 119.055 147.511C115.526 148.497 111.765 147.575 108.276 146.455C104.787 145.335 101.252 143.998 97.5916 144.155C90.2513 144.471 84.1143 151.424 83.8565 158.772C83.5986 166.119 88.5934 173.113 95.2946 176.127C101.996 179.141 110.012 178.466 116.622 175.256C123.231 172.046 128.517 166.512 132.381 160.259C138.092 151.02 152.443 148.741 160.732 155.758C161.619 156.455 162.737 156.792 163.862 156.702C164.986 156.611 166.036 156.1 166.801 155.271C168.267 153.559 168.055 150.672 167.189 149.839Z" fill="#2F2E41"/>
<path d="M323.724 113.217L316.736 106.909C291.919 84.1087 275.535 69.3102 275.535 50.8759C275.535 35.8358 287.1 24.1929 302.039 24.1929C306.176 24.2149 310.258 25.1377 314.003 26.8971C317.748 28.6564 321.065 31.2103 323.724 34.3813C326.384 31.2102 329.701 28.6563 333.445 26.897C337.19 25.1376 341.273 24.2148 345.41 24.1929C360.349 24.1929 371.914 35.8359 371.914 50.8759C371.914 69.3105 355.53 84.1089 330.713 106.909L323.724 113.217Z" fill="url(#paint0_linear)"/>
<path d="M208.676 156.601C208.021 156.373 207.454 155.945 207.055 155.378C206.656 154.811 206.444 154.133 206.449 153.439V7.68132C206.451 5.64482 207.261 3.6924 208.7 2.25238C210.139 0.812357 212.09 0.00232892 214.125 0H433.324C435.359 0.00232892 437.31 0.812357 438.749 2.25238C440.188 3.6924 440.998 5.64482 441 7.68132V130.582C440.998 132.619 440.188 134.571 438.749 136.011C437.31 137.451 435.359 138.261 433.324 138.264H226.547L212.401 155.565C212.091 155.951 211.698 156.262 211.252 156.476C210.806 156.69 210.317 156.801 209.823 156.802C209.432 156.801 209.044 156.733 208.676 156.601ZM214.125 1.70696C212.542 1.70874 211.025 2.33875 209.905 3.45877C208.786 4.57879 208.156 6.09737 208.155 7.68132V153.439C208.155 153.779 208.26 154.112 208.456 154.39C208.652 154.668 208.929 154.879 209.25 154.994C209.57 155.108 209.918 155.121 210.246 155.03C210.574 154.938 210.866 154.748 211.081 154.484L225.739 136.557H433.324C434.907 136.555 436.424 135.925 437.544 134.805C438.663 133.685 439.292 132.166 439.294 130.582V7.68132C439.292 6.09737 438.663 4.57879 437.544 3.45877C436.424 2.33875 434.907 1.70874 433.324 1.70696H214.125Z" fill="#3F3D56"/>
<path d="M144.039 289.631L142.557 286.186C137.363 273.808 133.892 265.727 136.954 259.056C138.065 256.519 140.138 254.528 142.716 253.52C145.294 252.512 148.167 252.571 150.702 253.682C150.795 253.723 150.886 253.765 150.978 253.808C152.471 254.504 153.795 255.517 154.858 256.776C155.921 258.036 156.697 259.512 157.133 261.102C158.622 260.396 160.247 260.024 161.894 260.01C163.541 259.996 165.172 260.341 166.673 261.021C167.925 261.579 169.055 262.379 169.998 263.374C170.941 264.369 171.679 265.54 172.17 266.82C172.661 268.101 172.895 269.465 172.859 270.836C172.823 272.207 172.517 273.558 171.96 274.811C171.919 274.903 171.876 274.995 171.832 275.086C168.771 281.757 160.383 284.387 147.615 288.511L144.039 289.631Z" fill="url(#paint1_linear)"/>
<path d="M149.747 272.707C149.348 271.518 148.693 270.43 147.829 269.521C146.964 268.613 145.911 267.904 144.744 267.447C143.576 266.989 142.323 266.793 141.072 266.873C139.82 266.952 138.602 267.306 137.501 267.908L122.171 256.384L118.47 266.925L134.314 280.137C135.447 281.919 137.194 283.224 139.224 283.803C141.254 284.383 143.426 284.197 145.328 283.281C147.23 282.366 148.731 280.783 149.545 278.835C150.36 276.886 150.431 274.706 149.747 272.707H149.747Z" fill="#FFB8B8"/>
<path d="M127.766 276.342C127.09 276.342 126.429 276.15 125.859 275.788L119.275 271.624C114.066 268.331 112.19 261.34 114.912 255.364L128.408 225.73C128.949 224.488 129.783 223.396 130.838 222.546C131.894 221.696 133.139 221.115 134.467 220.851C135.668 220.631 136.905 220.71 138.068 221.081C139.232 221.452 140.286 222.104 141.139 222.979C142.476 224.376 143.328 226.166 143.571 228.085C143.813 230.004 143.433 231.95 142.486 233.637L129.158 258.053L133.148 261.768C133.743 262.349 134.155 263.092 134.332 263.905C134.509 264.717 134.444 265.564 134.144 266.34L131.391 273.695C131.188 274.263 130.86 274.779 130.432 275.204C130.004 275.63 129.486 275.954 128.916 276.153C128.546 276.278 128.157 276.342 127.766 276.342Z" fill="#2F2E41"/>
<path d="M268.668 466H0.852914C0.626707 466 0.409777 465.91 0.249825 465.75C0.0898727 465.59 0 465.373 0 465.146C0 464.92 0.0898727 464.703 0.249825 464.543C0.409777 464.383 0.626707 464.293 0.852914 464.293H268.668C268.894 464.293 269.111 464.383 269.271 464.543C269.431 464.703 269.521 464.92 269.521 465.146C269.521 465.373 269.431 465.59 269.271 465.75C269.111 465.91 268.894 466 268.668 466Z" fill="#CCCCCC"/>
</g>
<defs>
<linearGradient id="paint0_linear" x1="297.727" y1="140.745" x2="336.171" y2="17.0747" gradientUnits="userSpaceOnUse">
<stop stop-color="#EF1549"/>
<stop offset="1" stop-color="#254E8C"/>
</linearGradient>
<linearGradient id="paint1_linear" x1="144.339" y1="301.019" x2="161.215" y2="250.56" gradientUnits="userSpaceOnUse">
<stop stop-color="#EF1549"/>
<stop offset="1" stop-color="#254E8C"/>
</linearGradient>
<clipPath id="clip0">
<rect width="441" height="466" fill="white"/>
</clipPath>
</defs>
</svg>
